# xmcd
#
# Track frame offsets:
#	150
#	15235
#	34513
#	46698
#	58822
#	78159
#	96340
#	109360
#	131355
#	155149
#	175095
#	190201
#	213327
#	236968
#	250299
#
# Disc length: 3505 seconds
#
# Revision: 1
# Processed by: cddbd v1.5.2PL0 Copyright (c) Steve Scherf et al.
# Submitted via: audiograbber 1.83.01
#
DISCID=c40daf0f
DTITLE=Various Artist - The No.1 Dance Classics Album [CD3]
DYEAR=2006
DGENRE=Dance
TTITLE0=David Morales Presents The Face - Needin U' (I Need U)
TTITLE1=Freemasons Ft. Amanda Wilson - Watchin
TTITLE2=A Guy Called Gerald - Voodoo Ray
TTITLE3=Sub Sub Ft. Melanie Williams - Ain't No Use
TTITLE4=Gypsy - Skinny Bumblebee
TTITLE5=Havana - Schtoom
TTITLE6=Danny Howells and Dick Trevor Ft. Erire - Dusk Till Dawn
TTITLE7=Agnelli and Nelson - Everyday
TTITLE8=Thrillseekers Ft. Sheryl Deane - Synaesthesia (Fly Away)
TTITLE9=Bedrock - Heaven Scent
TTITLE10=Mario Piu - The Vision
TTITLE11=Danzel - Pump It Up
TTITLE12=Scape Ft. D'Empress - Be My Friend
TTITLE13=DT8 Project Ft. Andrea Britton - Winter
TTITLE14=Uniting Nations Ft. Laura More - Ai No Corrida
EXTD=
EXTT0=
EXTT1=
EXTT2=
EXTT3=
EXTT4=
EXTT5=
EXTT6=
EXTT7=
EXTT8=
EXTT9=
EXTT10=
EXTT11=
EXTT12=
EXTT13=
EXTT14=
PLAYORDER=
